<?xml version="1.0" standalone="no"?>
<!DOCTYPE svg PUBLIC "-//W3C//DTD SVG 20010904//EN"
 "http://www.w3.org/TR/2001/REC-SVG-20010904/DTD/svg10.dtd">
<svg version="1.0" xmlns="http://www.w3.org/2000/svg"
 width="700.000000pt" height="700.000000pt" viewBox="0 0 700.000000 700.000000"
 preserveAspectRatio="xMidYMid meet">
<metadata>
Created by potrace 1.11, written by Peter Selinger 2001-2013
</metadata>
<g transform="translate(0.000000,700.000000) scale(0.100000,-0.100000)"
fill="#000000" stroke="none">
<path d="M1905 6371 l-1590 -568 3 -44 c5 -84 472 -4144 480 -4167 5 -18 302
-186 1359 -772 l1353 -749 302 168 c472 262 1468 814 1953 1081 242 134 443
246 447 249 5 4 461 3920 491 4210 2 23 -50 43 -1578 588 -869 310 -1591 566
-1605 568 -16 3 -589 -197 -1615 -564z m2275 -1396 c311 -9 582 -20 603 -26
69 -18 65 10 87 -683 10 -345 16 -635 13 -644 -8 -22 -136 -153 -923 -947
-580 -585 -652 -653 -710 -682 -133 -67 -283 -67 -420 -2 -58 28 -105 71 -458
428 -216 218 -408 419 -427 447 -101 153 -101 372 0 521 29 44 686 715 1394
1426 l177 177 50 0 c27 0 303 -7 614 -15z"/>
<path d="M4083 4501 c-49 -13 -120 -58 -147 -94 -86 -113 -70 -269 37 -363
140 -123 363 -62 422 116 40 120 -12 253 -122 312 -54 30 -137 42 -190 29z"/>
<path d="M2899 3801 c-37 -37 -37 -68 1 -116 17 -21 30 -40 30 -42 0 -2 -10
-23 -22 -46 -32 -59 -32 -175 -1 -233 49 -92 164 -154 261 -139 68 10 116 38
199 117 67 64 77 70 106 64 57 -12 89 -64 66 -109 -6 -12 -56 -67 -110 -123
-89 -91 -99 -105 -99 -138 0 -50 36 -86 85 -86 28 0 45 9 79 40 l44 41 45 -32
c52 -37 94 -34 127 8 33 42 21 100 -28 140 -12 10 -11 19 12 64 47 95 29 216
-42 293 -68 72 -199 97 -292 55 -24 -11 -77 -51 -116 -90 -80 -77 -110 -86
-158 -48 -19 15 -26 29 -26 57 0 32 10 46 95 133 85 86 95 100 95 133 0 83
-87 114 -155 55 l-35 -31 -35 31 c-47 41 -86 41 -126 2z"/>
</g>
</svg>
